<svg width="101" height="101" viewBox="0 0 101 101" fill="none" xmlns="http://www.w3.org/2000/svg">
<g clip-path="url(#clip0_1_135)">
<path d="M52.3251 41.5195C47.0015 41.5195 42.0042 44.3654 39.2834 48.9459C38.8931 49.6043 39.1098 50.4584 39.7695 50.8487C39.9917 50.982 40.2362 51.0445 40.4779 51.0445C40.9515 51.0445 41.414 50.8015 41.6723 50.364C43.8959 46.6223 47.9751 44.2973 52.3237 44.2973C53.0904 44.2973 53.7126 43.6765 53.7126 42.9084C53.714 42.1404 53.0917 41.5195 52.3251 41.5195Z" fill="#9e0b79"/>
<path d="M39.2347 52.1818C38.4819 52.0082 37.7403 52.4693 37.5667 53.2179C37.3139 54.3013 37.1694 54.9763 37.1694 56.1985C37.1694 56.9665 37.7903 57.5874 38.5583 57.5874C39.325 57.5874 39.9472 56.9652 39.9472 56.1985C39.9472 55.2763 40.0458 54.8124 40.2708 53.8513C40.4458 53.1013 39.9805 52.3554 39.2347 52.1818Z" fill="#9e0b79"/>
<path d="M86.178 26.5764H79.3641L73.7891 16.8069C73.7322 16.7083 73.6697 16.6347 73.6016 16.5444C70.9919 13.0458 67.1752 11.2986 61.9335 11.2986H38.5891L36.7252 11.318C33.5322 11.318 30.1391 11.7639 26.8405 16.6805C26.7738 16.7791 26.7127 16.8611 26.6599 16.968L21.8613 26.5764H15.1544C9.55855 26.5764 5.36133 31.0194 5.36133 36.1708V79.4166C5.36133 84.6125 9.65577 89.0764 15.1544 89.0764H86.178C91.2697 89.0764 95.6405 84.975 95.6405 79.4166V36.1708C95.6391 30.6639 91.353 26.5764 86.178 26.5764ZM15.1544 32.1319H23.5822C24.6363 32.1319 25.6002 31.5805 26.0724 30.6347L31.553 19.6514C33.3391 17.0514 34.5669 16.925 36.728 16.925L61.9335 16.9347C65.371 16.9347 67.5113 17.7722 69.0516 19.7611L75.3349 30.7736C75.828 31.6416 76.7502 32.1319 77.7502 32.1319H86.1766C88.6669 32.1319 90.0835 34.2625 90.0835 36.1708V44.6319H67.4822C63.9891 38.9972 57.7683 35.225 50.6669 35.225C43.5655 35.225 37.3419 38.9972 33.8488 44.6319H10.9169V36.1708C10.9169 33.9486 12.9502 32.1319 15.1544 32.1319ZM50.6655 72.0305C41.2835 72.0305 33.6516 64.3972 33.6516 55.0166C33.6516 45.6361 41.2835 38.0027 50.6655 38.0027C60.0474 38.0027 67.6794 45.6347 67.6794 55.0166C67.6794 64.3958 60.0474 72.0305 50.6655 72.0305ZM10.9169 47.4097H32.3988C31.4183 49.7541 30.8738 52.3208 30.8738 55.0166C30.8738 58.2833 31.6835 61.3583 33.0905 64.0764H10.9169V47.4097ZM86.178 83.5208H15.1544C12.7474 83.5208 10.9169 81.5319 10.9169 79.4166V66.8541H33.9988C34.2544 66.8541 34.4808 66.7666 34.6863 66.6458C38.2891 71.5833 44.1002 74.8083 50.6655 74.8083C57.1363 74.8083 62.8752 71.6722 66.4891 66.8541H72.8877C73.6544 66.8541 74.2766 66.2333 74.2766 65.4652C74.2766 64.6972 73.6544 64.0764 72.8877 64.0764H68.2405C69.6488 61.3583 70.4572 58.2819 70.4572 55.0166C70.4572 52.3236 69.9113 49.7541 68.9322 47.4097H90.0835V64.0764H82.6085C81.8405 64.0764 81.2197 64.6972 81.2197 65.4652C81.2197 66.2333 81.8405 66.8541 82.6085 66.8541H90.0835V79.4166C90.0849 81.4375 88.4988 83.5208 86.178 83.5208Z" fill="#9e0b79"/>
<path d="M78.4433 64.0764H77.0544C76.2864 64.0764 75.6655 64.6972 75.6655 65.4653C75.6655 66.2334 76.2864 66.8542 77.0544 66.8542H78.4433C79.21 66.8542 79.8322 66.2334 79.8322 65.4653C79.8322 64.6972 79.21 64.0764 78.4433 64.0764Z" fill="#9e0b79"/>
</g>
<defs>
<clipPath id="clip0_1_135">
<rect width="100" height="100" fill="white" transform="translate(0.5 0.1875)"/>
</clipPath>
</defs>
</svg>
