<svg width="101" height="101" viewBox="0 0 101 101" fill="none" xmlns="http://www.w3.org/2000/svg">
<g clip-path="url(#clip0_1_126)">
<path d="M52.8067 14.7041C52.8067 13.9374 52.1845 13.3152 51.4178 13.3152C43.7803 13.3152 37.5664 19.5291 37.5664 27.1666C37.5664 27.9346 38.1872 28.5555 38.9553 28.5555C39.722 28.5555 40.3442 27.9346 40.3442 27.1666C40.3442 21.061 45.3122 16.093 51.4178 16.093C52.1845 16.093 52.8067 15.4721 52.8067 14.7041Z" fill="#9e0b79"/>
<path d="M38.457 31.5124C38.1945 31.7763 38.0542 32.1374 38.0542 32.4985C38.0542 32.8596 38.1945 33.2221 38.457 33.4846C38.7209 33.7485 39.0681 33.8874 39.4431 33.8874C39.8056 33.8874 40.1667 33.7499 40.4153 33.4846C40.6806 33.2221 40.832 32.8749 40.832 32.4985C40.832 32.1374 40.6792 31.7763 40.4153 31.5124C39.9014 30.9985 38.9709 30.9985 38.457 31.5124Z" fill="#9e0b79"/>
<path d="M63.8235 54.3972C69.7485 46.2902 73.4332 34.2111 73.4332 26.5125C73.4332 13.9305 63.1957 3.6958 50.6152 3.6958C38.0332 3.6958 27.7985 13.9305 27.7985 26.5125C27.7985 34.2208 31.4915 46.3194 37.4277 54.4264C25.2804 59.6875 17.0513 72.0069 17.0513 85.5694C17.0513 95.8805 42.654 96.6805 50.4999 96.6805C58.3443 96.6805 83.9485 95.8805 83.9485 85.5722C83.9485 72.0514 75.8235 59.7291 63.8235 54.3972ZM50.6152 9.25136C60.1332 9.25136 67.8777 16.9944 67.8777 26.5125C67.8777 37.2944 59.0027 57.3458 50.6152 57.3458C42.2263 57.3458 33.354 37.2958 33.354 26.5125C33.354 16.9944 41.0971 9.25136 50.6152 9.25136ZM50.4999 91.125C31.1832 91.125 22.6068 87.1013 22.6068 85.5694C22.6068 73.7777 30.0152 63.0958 40.8165 59.0208C43.7485 61.75 47.104 63.1791 50.6152 63.1791C54.0457 63.1791 57.3832 61.7222 60.3582 58.9444C71.0554 63.0708 78.3929 73.7833 78.3929 85.5694C78.3929 87.1 69.8152 91.125 50.4999 91.125Z" fill="#9e0b79"/>
</g>
<defs>
<clipPath id="clip0_1_126">
<rect width="100" height="100" fill="white" transform="translate(0.5 0.1875)"/>
</clipPath>
</defs>
</svg>
