<svg width="23" height="23" viewBox="0 0 23 23" fill="none" xmlns="http://www.w3.org/2000/svg">
<path d="M3.72266 22.25H10.8984V14.4297H8.32031V11.8516H10.8984V8.62891C10.8984 6.85191 12.3441 5.40625 14.1211 5.40625H17.3438V7.98438H14.7656C14.0548 7.98438 13.4766 8.56261 13.4766 9.27344V11.8516H17.2274L16.7977 14.4297H13.4766V22.25H19.2773C21.0543 22.25 22.5 20.8043 22.5 19.0273V3.47266C22.5 1.69566 21.0543 0.25 19.2773 0.25H3.72266C1.94566 0.25 0.5 1.69566 0.5 3.47266V19.0273C0.5 20.8043 1.94566 22.25 3.72266 22.25ZM1.78906 3.47266C1.78906 2.40649 2.65649 1.53906 3.72266 1.53906H19.2773C20.3435 1.53906 21.2109 2.40649 21.2109 3.47266V19.0273C21.2109 20.0935 20.3435 20.9609 19.2773 20.9609H14.7656V15.7188H17.8898L18.7491 10.5625H14.7656V9.27344H18.6328V4.11719H14.1211C11.6333 4.11719 9.60938 6.14108 9.60938 8.62891V10.5625H7.03125V15.7188H9.60938V20.9609H3.72266C2.65649 20.9609 1.78906 20.0935 1.78906 19.0273V3.47266Z" fill="white"/>
</svg>
