<svg width="23" height="23" viewBox="0 0 23 23" fill="none" xmlns="http://www.w3.org/2000/svg">
<g clip-path="url(#clip0_1_21)">
<path d="M16.5448 0.25H6.45519C3.17144 0.25 0.5 2.92144 0.5 6.20519V16.2949C0.5 19.5785 3.17144 22.25 6.45519 22.25H16.5449C19.8285 22.25 22.5 19.5785 22.5 16.2949V6.20519C22.5 2.92144 19.8285 0.25 16.5448 0.25ZM21.2102 16.2949C21.2102 18.8674 19.1174 20.9602 16.5448 20.9602H6.45519C3.88261 20.9602 1.78973 18.8674 1.78973 16.2949V6.20519C1.78973 3.63261 3.88261 1.53973 6.45519 1.53973H16.5449C19.1174 1.53973 21.2102 3.63261 21.2102 6.20519V16.2949Z" fill="#FCFCFC"/>
<path d="M11.4998 5.23453C8.18284 5.23453 5.48438 7.933 5.48438 11.25C5.48438 14.567 8.18284 17.2654 11.4998 17.2654C14.8168 17.2654 17.5153 14.567 17.5153 11.25C17.5153 7.933 14.8168 5.23453 11.4998 5.23453ZM11.4998 15.9757C8.89417 15.9757 6.77411 13.8558 6.77411 11.25C6.77411 8.64433 8.89417 6.52427 11.4998 6.52427C14.1056 6.52427 16.2255 8.64433 16.2255 11.25C16.2255 13.8558 14.1056 15.9757 11.4998 15.9757Z" fill="#FCFCFC"/>
<path d="M17.6593 3.09819C16.6791 3.09819 15.8818 3.89562 15.8818 4.87568C15.8818 5.8559 16.6791 6.65334 17.6593 6.65334C18.6396 6.65334 19.437 5.8559 19.437 4.87568C19.437 3.89546 18.6396 3.09819 17.6593 3.09819ZM17.6593 5.36344C17.3904 5.36344 17.1716 5.14457 17.1716 4.87568C17.1716 4.60662 17.3904 4.38792 17.6593 4.38792C17.9284 4.38792 18.1473 4.60662 18.1473 4.87568C18.1473 5.14457 17.9284 5.36344 17.6593 5.36344Z" fill="#FCFCFC"/>
</g>
<defs>
<clipPath id="clip0_1_21">
<rect width="22" height="22" fill="white" transform="translate(0.5 0.25)"/>
</clipPath>
</defs>
</svg>
