<svg width="101" height="101" viewBox="0 0 101 101" fill="none" xmlns="http://www.w3.org/2000/svg">
<g clip-path="url(#clip0_1_84)">
<path d="M86.2818 18.8796C79.3679 18.8796 73.2846 13.2532 73.1818 6.3379C73.1568 4.81846 71.9235 3.59485 70.404 3.59485H29.1763C27.6568 3.59485 26.611 4.81846 26.5874 6.3379C26.486 13.2518 20.9693 18.8823 14.0568 18.8823C12.5221 18.8823 11.6582 20.1268 11.6582 21.6601V61.3948C11.6582 84.9171 47.8388 96.1073 49.3943 96.5712C49.6554 96.6504 49.5443 96.6879 49.811 96.6879C50.1415 96.6879 50.8526 96.6282 51.1693 96.5087C52.7165 95.9282 89.4374 82.0143 89.4374 61.4101V21.6601C89.4374 20.1254 87.8137 18.8796 86.2818 18.8796ZM83.8804 24.2254V48.0393H50.5471V9.1504H67.8735C69.1693 17.4837 75.5471 23.0254 83.8804 24.2254ZM31.7054 9.1504H47.7693V48.0393H17.2138V24.2254C24.1582 23.0254 30.4068 17.4837 31.7054 9.1504ZM17.2138 61.3962V50.8171H47.7693V90.0004C39.0026 86.7212 17.2138 76.9976 17.2138 61.3962ZM50.5471 90.9379V50.8171H83.8804V61.4087C83.8804 74.8865 60.6804 86.9226 50.5471 90.9379Z" fill="#9e0b79"/>
<path d="M36.7834 77.0004C31.9515 74.5726 28.2292 71.1615 26.0223 67.1309C25.6556 66.4601 24.8098 66.2087 24.1376 66.5809C23.4653 66.949 23.2181 67.7934 23.5876 68.4643C26.0653 72.9921 30.1973 76.8004 35.5376 79.4837C35.7376 79.5837 35.9501 79.6296 36.1598 79.6296C36.6681 79.6296 37.157 79.3504 37.4015 78.8643C37.7459 78.1796 37.4695 77.3448 36.7834 77.0004Z" fill="#9e0b79"/>
<path d="M23.7247 61.5463C23.5247 60.831 23.44 60.3976 23.4344 60.3671C23.2928 59.6129 22.5664 59.124 21.8164 59.2601C21.0636 59.4018 20.565 60.1226 20.7039 60.8768C20.7039 60.8768 20.8011 61.406 21.0511 62.2949C21.2233 62.9074 21.7803 63.3074 22.3872 63.3074C22.5108 63.3074 22.6372 63.2907 22.765 63.256C23.5025 63.0518 23.933 62.2838 23.7247 61.5463Z" fill="#67A6A1"/>
</g>
<defs>
<clipPath id="clip0_1_84">
<rect width="100" height="100" fill="white" transform="translate(0.546875 0.140625)"/>
</clipPath>
</defs>
</svg>
