<svg width="101" height="101" viewBox="0 0 101 101" fill="none" xmlns="http://www.w3.org/2000/svg">
<g clip-path="url(#clip0_1_93)">
<path d="M52.3845 5.00171H49.8901C30.9304 5.00171 15.5679 19.9017 15.5679 38.3517V85.1795C15.5679 90.3128 20.1137 95.2781 24.9915 95.2781H25.454C30.7179 95.2781 33.6234 90.0212 33.6234 85.1795V81.0184C33.6234 79.3031 36.179 78.6142 37.9484 78.6142H38.4109C39.4581 78.6142 41.9568 78.7489 41.9568 81.0184V85.1795C41.9568 89.9031 45.5943 95.2781 50.9054 95.2781H51.3679C56.5026 95.2781 60.0123 90.0031 60.0123 85.1795V81.0184C60.0123 79.0281 62.5081 78.6142 63.8609 78.6142H64.3248C66.2679 78.6142 66.9568 79.1142 66.9568 81.0184V85.1795C66.9568 90.2198 71.8109 95.2781 76.8206 95.2781H77.2845C82.4651 95.2781 86.4012 89.8934 86.4012 85.1795V38.3517C86.4012 19.9017 71.104 5.00171 52.3845 5.00171ZM80.8456 85.1809C80.8456 87.3323 78.9845 89.7239 77.2845 89.7239H76.8206C74.8984 89.7239 72.5123 87.1267 72.5123 85.1809V81.0156C72.5123 76.0378 69.3345 73.0573 64.3248 73.0573H63.8609C58.3734 73.0573 54.4568 76.3392 54.4568 81.0184V85.1795C54.4568 87.2295 53.072 89.7225 51.3679 89.7225H50.9054C49.2248 89.7225 47.5123 87.3323 47.5123 85.1795V81.0184C47.5123 76.2656 43.7318 73.0587 38.4109 73.0587H37.9484C33.1276 73.0587 28.0679 75.7767 28.0679 81.0184V85.1795C28.0679 87.0378 27.1165 89.7225 25.454 89.7225H24.9915C23.1901 89.7225 21.1234 87.21 21.1234 85.1795V38.3517C21.1234 22.9642 33.9929 10.5573 49.8901 10.5573H52.3845C68.3081 10.5573 80.8456 22.7031 80.8456 38.3517V85.1809Z" fill="#9e0b79"/>
<path d="M50.675 16.0489C50.9736 16.0489 51.2709 16.1128 51.5667 16.1128C51.5834 16.1128 51.5986 16.1128 51.6153 16.1128C52.3597 16.1128 52.975 15.4781 53.0028 14.7281C53.0278 13.9614 52.4292 13.2725 51.6625 13.2461C51.3361 13.2336 51.0056 13.235 50.675 13.235C49.907 13.235 49.2861 13.8684 49.2861 14.6364C49.2861 15.4045 49.907 16.0489 50.675 16.0489Z" fill="#9e0b79"/>
<path d="M57.6694 14.1086C56.9235 13.917 56.1471 14.3614 55.9527 15.1031C55.7596 15.8447 56.2208 16.6031 56.9652 16.7975C67.0749 19.4309 73.9013 28.0031 73.9013 38.1267V54.8906C73.9013 55.6586 74.5221 56.2795 75.2902 56.2795C76.0569 56.2795 76.6791 55.6586 76.6791 54.8906V38.1267C76.6791 26.7184 69.0235 17.067 57.6694 14.1086Z" fill="#9e0b79"/>
<path d="M34.0315 32.8822C29.5579 32.8822 25.9204 36.5211 25.9204 40.9933C25.9204 45.4655 29.5579 49.1044 34.0315 49.1044C38.5037 49.1044 42.1426 45.4655 42.1426 40.9933C42.1426 36.5211 38.5037 32.8822 34.0315 32.8822ZM34.0315 46.3266C31.0912 46.3266 28.6982 43.9336 28.6982 40.9933C28.6982 38.053 31.0912 35.66 34.0315 35.66C36.9718 35.66 39.3649 38.053 39.3649 40.9933C39.3649 43.9336 36.9718 46.3266 34.0315 46.3266Z" fill="#9e0b79"/>
<path d="M54.4969 32.8822C50.0232 32.8822 46.3857 36.5211 46.3857 40.9933C46.3857 45.4655 50.0232 49.1044 54.4969 49.1044C58.9691 49.1044 62.608 45.4655 62.608 40.9933C62.608 36.5211 58.9691 32.8822 54.4969 32.8822ZM54.4969 46.3266C51.5566 46.3266 49.1635 43.9336 49.1635 40.9933C49.1635 38.053 51.5566 35.66 54.4969 35.66C57.4371 35.66 59.8302 38.053 59.8302 40.9933C59.8302 43.9336 57.4371 46.3266 54.4969 46.3266Z" fill="#9e0b79"/>
</g>
<defs>
<clipPath id="clip0_1_93">
<rect width="100" height="100" fill="white" transform="translate(0.984375 0.140625)"/>
</clipPath>
</defs>
</svg>
