<svg width="101" height="101" viewBox="0 0 101 101" fill="none" xmlns="http://www.w3.org/2000/svg">
<g clip-path="url(#clip0_1_104)">
<path d="M81.8371 46.6683H74.7274V27.6697C74.7274 14.4058 64.5635 3.61279 51.8621 3.61279H51.6913C38.894 3.61279 27.5052 14.8545 27.5052 27.6697V46.6683H19.3371C17.8038 46.6683 16.394 47.9128 16.394 49.4461V82.9878C16.394 94.4864 21.9288 96.6683 31.8371 96.6683H72.1149C83.5371 96.6683 84.4496 92.917 84.4496 82.9878V49.4461C84.4496 47.9128 83.3704 46.6683 81.8371 46.6683ZM33.0607 27.6697C33.0607 17.8142 41.8538 9.16835 51.6913 9.16835H51.8621C61.3343 9.16835 69.1718 17.642 69.1718 27.6697V46.6683H33.0607V27.6697ZM72.1149 91.1128H31.8371C23.3871 91.1128 21.9496 90.0489 21.9496 82.9878V52.2239H78.894V82.9878C78.894 91.1128 79.0593 91.1128 72.1149 91.1128Z" fill="#9e0b79"/>
<path d="M36.004 56.3906H29.0595C28.2915 56.3906 27.5054 57.0115 27.5054 57.7795V73.0573C27.5054 73.8253 28.1262 74.4462 28.8943 74.4462C29.6609 74.4462 30.2831 73.8253 30.2831 73.0573V59.1684H36.004C36.7706 59.1684 37.3929 58.5476 37.3929 57.7795C37.3929 57.0115 36.7706 56.3906 36.004 56.3906Z" fill="#9e0b79"/>
<path d="M28.8943 77.2239C28.1262 77.2239 27.5054 77.8447 27.5054 78.6128V80.0017C27.5054 80.7697 28.1262 81.3905 28.8943 81.3905C29.6609 81.3905 30.2831 80.7697 30.2831 80.0017V78.6128C30.2831 77.8447 29.6609 77.2239 28.8943 77.2239Z" fill="#9e0b79"/>
</g>
<defs>
<clipPath id="clip0_1_104">
<rect width="100" height="100" fill="white" transform="translate(0.421875 0.140625)"/>
</clipPath>
</defs>
</svg>
