<svg width="101" height="101" viewBox="0 0 101 101" fill="none" xmlns="http://www.w3.org/2000/svg">
<path d="M92.9584 9.53912C90.5334 6.37523 86.114 5.24884 81.1501 6.57662L14.8654 24.2947C10.3292 25.5113 7.31675 28.0975 6.3848 31.578C5.44452 35.0877 6.78064 38.8738 10.1473 42.2391L34.8945 66.9863L58.7112 90.8016C61.3556 93.4488 64.282 94.8461 67.1695 94.8461C71.6487 94.8461 75.1987 91.5641 76.6751 86.0655L94.3431 19.8322C95.4306 15.7752 94.9404 12.1197 92.9584 9.53912ZM88.9765 18.3961L71.3056 84.6308C70.9292 86.0294 69.7737 89.2905 67.1681 89.2905C65.8042 89.2905 64.1945 88.4336 62.6376 86.8738L40.7862 65.0224L57.482 48.3252C58.5667 47.2405 58.5667 45.4822 57.482 44.3974C56.3973 43.3127 54.639 43.3127 53.5542 44.3974L36.8584 61.0947L14.0751 38.3127C12.1987 36.4363 11.3515 34.5058 11.7501 33.0169C12.1417 31.5558 13.8015 30.3322 16.3029 29.6627L82.589 11.9447C83.5195 11.6961 84.3931 11.5697 85.1848 11.5697C86.2487 11.5697 87.6945 11.803 88.5515 12.9211C89.457 14.1002 89.607 16.0433 88.9765 18.3961Z" fill="#9e0b79"/>
<path d="M73.0445 61.0905C72.3084 60.9002 71.5445 61.3432 71.3487 62.0863L71.2056 62.6321C71.0112 63.3752 71.4584 64.1321 72.2001 64.328C72.3167 64.3571 72.4348 64.371 72.5515 64.371C73.1681 64.371 73.7334 63.9585 73.8959 63.3335L74.039 62.7863C74.232 62.0419 73.7862 61.2863 73.0445 61.0905Z" fill="#9e0b79"/>
<path d="M71.9989 65.121C71.2586 64.9224 70.4989 65.3752 70.3045 66.1168L67.3433 77.5182C67.1503 78.2613 67.5961 79.0182 68.3392 79.2113C68.4559 79.2432 68.5753 79.2571 68.6892 79.2571C69.3059 79.2571 69.8697 78.8418 70.0322 78.2155L72.9947 66.8141C73.185 66.0724 72.742 65.3141 71.9989 65.121Z" fill="#9e0b79"/>
</svg>
