<svg width="101" height="101" viewBox="0 0 101 101" fill="none" xmlns="http://www.w3.org/2000/svg">
<g clip-path="url(#clip0_28_733)">
<path d="M39.2071 95.2295C38.7612 95.2295 38.314 95.1212 37.9057 94.9045C36.9737 94.4114 36.4015 93.4309 36.4293 92.3795L36.7001 82.0364H29.7348C24.4265 82.0364 20.6362 77.6614 20.6362 72.285V35.9837C20.6362 30.7434 24.4265 26.4795 29.7348 26.4795H85.4807C90.789 26.4795 95.6376 30.742 95.6376 35.9837V72.2837C95.6376 77.66 90.7904 82.035 85.4807 82.035H58.5029L40.8251 94.7087C40.3446 95.0545 39.7765 95.2295 39.2071 95.2295ZM29.7376 32.035C27.4543 32.035 26.1946 33.7698 26.1946 35.9837V72.2837C26.1946 74.56 27.5307 76.4795 29.7376 76.4795H39.5543C40.3043 76.4795 41.0223 76.7809 41.5446 77.3184C42.0682 77.8559 42.3515 78.5823 42.3307 79.3309L42.1307 86.9378L55.9904 77.0017C56.4626 76.6628 57.0279 76.4809 57.6085 76.4809H85.4807C87.6876 76.4809 90.0821 74.56 90.0821 72.285V35.9837C90.0821 33.7698 87.764 32.035 85.4807 32.035H29.7376Z" fill="#9e0b79"/>
<path d="M9.77799 58.9807C9.12244 58.9807 8.73077 58.7502 8.20161 58.2807C6.16966 56.4821 5.36133 54.1196 5.36133 51.4502V15.1502C5.36133 9.90989 9.15161 5.646 14.4599 5.646H70.2058C75.5141 5.646 80.3627 9.9085 80.3627 15.1502V16.7571C80.3627 18.2904 79.1183 19.5349 77.5849 19.5349C76.0516 19.5349 74.8072 18.2904 74.8072 16.7571V15.1502C74.8072 12.9363 72.4891 11.2016 70.2058 11.2016H14.4599C12.1766 11.2016 10.9169 12.9363 10.9169 15.1502V51.4502C10.9169 52.514 11.0558 53.3877 11.8849 54.1224C13.0336 55.139 13.0086 56.8974 11.9905 58.0446C11.4405 58.6627 10.5447 58.9807 9.77799 58.9807Z" fill="#9e0b79"/>
<path d="M47.8877 44.5351H36.7766C36.0085 44.5351 35.3877 43.9143 35.3877 43.1462C35.3877 42.3782 36.0085 41.7573 36.7766 41.7573H47.8877C48.6558 41.7573 49.2766 42.3782 49.2766 43.1462C49.2766 43.9143 48.6558 44.5351 47.8877 44.5351Z" fill="#9e0b79"/>
<path d="M67.332 44.5351H53.4431C52.675 44.5351 52.0542 43.9143 52.0542 43.1462C52.0542 42.3782 52.675 41.7573 53.4431 41.7573H67.332C68.1 41.7573 68.7209 42.3782 68.7209 43.1462C68.7209 43.9143 68.1 44.5351 67.332 44.5351Z" fill="#9e0b79"/>
<path d="M78.4435 44.5351H72.8879C72.1199 44.5351 71.499 43.9143 71.499 43.1462C71.499 42.3782 72.1199 41.7573 72.8879 41.7573H78.4435C79.2115 41.7573 79.8324 42.3782 79.8324 43.1462C79.8324 43.9143 79.2115 44.5351 78.4435 44.5351Z" fill="#9e0b79"/>
<path d="M42.3321 51.4794H36.7766C36.0085 51.4794 35.3877 50.8572 35.3877 50.0905C35.3877 49.3239 36.0085 48.7017 36.7766 48.7017H42.3321C43.1002 48.7017 43.721 49.3225 43.721 50.0905C43.721 50.8586 43.1002 51.4794 42.3321 51.4794Z" fill="#9e0b79"/>
<path d="M58.999 51.4794H47.8879C47.1199 51.4794 46.499 50.8572 46.499 50.0905C46.499 49.3239 47.1199 48.7017 47.8879 48.7017H58.999C59.7671 48.7017 60.3879 49.3225 60.3879 50.0905C60.3879 50.8586 59.7671 51.4794 58.999 51.4794Z" fill="#9e0b79"/>
<path d="M78.4433 51.4794H64.5544C63.7864 51.4794 63.1655 50.8572 63.1655 50.0905C63.1655 49.3239 63.7864 48.7017 64.5544 48.7017H78.4433C79.2114 48.7017 79.8322 49.3225 79.8322 50.0905C79.8322 50.8586 79.2114 51.4794 78.4433 51.4794Z" fill="#9e0b79"/>
<path d="M50.6655 59.8124H36.7766C36.0085 59.8124 35.3877 59.1916 35.3877 58.4236C35.3877 57.6555 36.0085 57.0347 36.7766 57.0347H50.6655C51.4335 57.0347 52.0544 57.6555 52.0544 58.4236C52.0544 59.1916 51.4335 59.8124 50.6655 59.8124Z" fill="#9e0b79"/>
<path d="M70.1098 59.8124H56.2209C55.4529 59.8124 54.832 59.1916 54.832 58.4236C54.832 57.6555 55.4529 57.0347 56.2209 57.0347H70.1098C70.8779 57.0347 71.4987 57.6555 71.4987 58.4236C71.4987 59.1916 70.8779 59.8124 70.1098 59.8124Z" fill="#9e0b79"/>
<path d="M78.443 59.8124H75.6653C74.8972 59.8124 74.2764 59.1916 74.2764 58.4236C74.2764 57.6555 74.8972 57.0347 75.6653 57.0347H78.443C79.2111 57.0347 79.8319 57.6555 79.8319 58.4236C79.8319 59.1916 79.2111 59.8124 78.443 59.8124Z" fill="#9e0b79"/>
<path d="M42.3321 66.7573H36.7766C36.0085 66.7573 35.3877 66.1364 35.3877 65.3684C35.3877 64.6003 36.0085 63.9795 36.7766 63.9795H42.3321C43.1002 63.9795 43.721 64.6003 43.721 65.3684C43.721 66.1364 43.1002 66.7573 42.3321 66.7573Z" fill="#9e0b79"/>
<path d="M57.6101 66.7573H47.8879C47.1199 66.7573 46.499 66.1364 46.499 65.3684C46.499 64.6003 47.1199 63.9795 47.8879 63.9795H57.6101C58.3782 63.9795 58.999 64.6003 58.999 65.3684C58.999 66.1364 58.3782 66.7573 57.6101 66.7573Z" fill="#9e0b79"/>
</g>
<defs>
<clipPath id="clip0_28_733">
<rect width="100" height="100" fill="white" transform="translate(0.5 0.4375)"/>
</clipPath>
</defs>
</svg>
